<svg width="100" height="100" viewBox="0 0 100 100" fill="none" xmlns="http://www.w3.org/2000/svg">
<rect width="100" height="100" rx="15" fill="#FF991E"/>
<path d="M27.7784 85V77.3636L51.4034 52.8864C53.9261 50.2273 56.0057 47.8977 57.642 45.8977C59.3011 43.875 60.5398 41.9545 61.358 40.1364C62.1761 38.3182 62.5852 36.3864 62.5852 34.3409C62.5852 32.0227 62.0398 30.0227 60.9489 28.3409C59.858 26.6364 58.3693 25.3295 56.483 24.4205C54.5966 23.4886 52.4716 23.0227 50.108 23.0227C47.608 23.0227 45.4261 23.5341 43.5625 24.5568C41.6989 25.5795 40.267 27.0227 39.267 28.8864C38.267 30.75 37.767 32.9318 37.767 35.4318H27.7102C27.7102 31.1818 28.6875 27.4659 30.642 24.2841C32.5966 21.1023 35.2784 18.6364 38.6875 16.8864C42.0966 15.1136 45.9716 14.2273 50.3125 14.2273C54.6989 14.2273 58.5625 15.1023 61.9034 16.8523C65.267 18.5795 67.892 20.9432 69.7784 23.9432C71.6648 26.9205 72.608 30.2841 72.608 34.0341C72.608 36.625 72.1193 39.1591 71.142 41.6364C70.1875 44.1136 68.517 46.875 66.1307 49.9205C63.7443 52.9432 60.4261 56.6136 56.1761 60.9318L42.3011 75.4545V75.9659H73.733V85H27.7784Z" fill="white"/>
</svg>
