<svg width="100" height="100" viewBox="0 0 100 100" fill="none" xmlns="http://www.w3.org/2000/svg">
<rect width="100" height="100" rx="15" fill="#FF991E"/>
<path d="M50.0852 85.9545C45.4034 85.9545 41.2216 85.1477 37.5398 83.5341C33.8807 81.9205 30.983 79.6818 28.8466 76.8182C26.733 73.9318 25.5966 70.5909 25.4375 66.7955H36.142C36.2784 68.8636 36.9716 70.6591 38.2216 72.1818C39.4943 73.6818 41.1534 74.8409 43.1989 75.6591C45.2443 76.4773 47.517 76.8864 50.017 76.8864C52.767 76.8864 55.1989 76.4091 57.3125 75.4545C59.4489 74.5 61.1193 73.1705 62.3239 71.4659C63.5284 69.7386 64.1307 67.75 64.1307 65.5C64.1307 63.1591 63.5284 61.1023 62.3239 59.3295C61.142 57.5341 59.4034 56.125 57.108 55.1023C54.8352 54.0795 52.0852 53.5682 48.858 53.5682H42.9602V44.9773H48.858C51.4489 44.9773 53.7216 44.5114 55.6761 43.5795C57.6534 42.6477 59.1989 41.3523 60.3125 39.6932C61.4261 38.0114 61.983 36.0455 61.983 33.7955C61.983 31.6364 61.4943 29.7614 60.517 28.1705C59.5625 26.5568 58.1989 25.2955 56.4261 24.3864C54.6761 23.4773 52.608 23.0227 50.2216 23.0227C47.9489 23.0227 45.8239 23.4432 43.8466 24.2841C41.892 25.1023 40.3011 26.2841 39.0739 27.8295C37.8466 29.3523 37.1875 31.1818 37.0966 33.3182H26.9034C27.017 29.5455 28.1307 26.2273 30.2443 23.3636C32.3807 20.5 35.1989 18.2614 38.6989 16.6477C42.1989 15.0341 46.0852 14.2273 50.358 14.2273C54.8352 14.2273 58.6989 15.1023 61.9489 16.8523C65.2216 18.5795 67.7443 20.8864 69.517 23.7727C71.3125 26.6591 72.1989 29.8182 72.1761 33.25C72.1989 37.1591 71.108 40.4773 68.9034 43.2045C66.7216 45.9318 63.8125 47.7614 60.1761 48.6932V49.2386C64.8125 49.9432 68.4034 51.7841 70.9489 54.7614C73.517 57.7386 74.7898 61.4318 74.767 65.8409C74.7898 69.6818 73.7216 73.125 71.5625 76.1705C69.4261 79.2159 66.5057 81.6136 62.8011 83.3636C59.0966 85.0909 54.858 85.9545 50.0852 85.9545Z" fill="white"/>
</svg>
