<svg width="100" height="100" viewBox="0 0 100 100" fill="none" xmlns="http://www.w3.org/2000/svg">
<rect width="100" height="100" rx="15" fill="#FF991E"/>
<path d="M49.9957 85.9545C45.723 85.9545 41.8821 85.1364 38.473 83.5C35.0866 81.8409 32.3821 79.5682 30.3594 76.6818C28.3366 73.7955 27.2571 70.5 27.1207 66.7955H37.348C37.598 69.7955 38.9276 72.2614 41.3366 74.1932C43.7457 76.125 46.6321 77.0909 49.9957 77.0909C52.6776 77.0909 55.0526 76.4773 57.1207 75.25C59.2116 74 60.848 72.2841 62.0298 70.1023C63.2344 67.9205 63.8366 65.4318 63.8366 62.6364C63.8366 59.7955 63.223 57.2614 61.9957 55.0341C60.7685 52.8068 59.0753 51.0568 56.9162 49.7841C54.7798 48.5114 52.3253 47.8636 49.5526 47.8409C47.4389 47.8409 45.3139 48.2045 43.1776 48.9318C41.0412 49.6591 39.3139 50.6136 37.9957 51.7955L28.348 50.3636L32.2685 15.1818H70.6548V24.2159H41.0298L38.8139 43.75H39.223C40.5866 42.4318 42.3935 41.3295 44.6435 40.4432C46.9162 39.5568 49.348 39.1136 51.9389 39.1136C56.1889 39.1136 59.973 40.125 63.2912 42.1477C66.6321 44.1705 69.2571 46.9318 71.1662 50.4318C73.098 53.9091 74.0526 57.9091 74.0298 62.4318C74.0526 66.9545 73.0298 70.9886 70.9617 74.5341C68.9162 78.0795 66.0753 80.875 62.4389 82.9205C58.8253 84.9432 54.6776 85.9545 49.9957 85.9545Z" fill="white"/>
</svg>
