<svg width="100" height="100" viewBox="0 0 100 100" fill="none" xmlns="http://www.w3.org/2000/svg">
<rect width="100" height="100" rx="15" fill="#FF991E"/>
<path d="M50.5753 85.9545C47.4616 85.9091 44.3935 85.3409 41.3707 84.25C38.3707 83.1591 35.6435 81.3409 33.1889 78.7955C30.7344 76.25 28.7685 72.8295 27.2912 68.5341C25.8366 64.2386 25.1094 58.875 25.1094 52.4432C25.1094 46.3523 25.7116 40.9432 26.9162 36.2159C28.1435 31.4886 29.9048 27.5 32.2003 24.25C34.4957 20.9773 37.2685 18.4886 40.5185 16.7841C43.7685 15.0795 47.4162 14.2273 51.4616 14.2273C55.6207 14.2273 59.3139 15.0455 62.5412 16.6818C65.7685 18.3182 68.3821 20.5795 70.3821 23.4659C72.4048 26.3523 73.6889 29.6364 74.2344 33.3182H63.8366C63.1321 30.4091 61.7344 28.0341 59.6435 26.1932C57.5526 24.3523 54.8253 23.4318 51.4616 23.4318C46.348 23.4318 42.3594 25.6591 39.4957 30.1136C36.6548 34.5682 35.223 40.7614 35.2003 48.6932H35.7116C36.9162 46.7159 38.3935 45.0341 40.1435 43.6477C41.9162 42.2386 43.8935 41.1591 46.0753 40.4091C48.2798 39.6364 50.598 39.25 53.0298 39.25C57.0753 39.25 60.7344 40.2386 64.0071 42.2159C67.3026 44.1705 69.9276 46.875 71.8821 50.3295C73.8366 53.7841 74.8139 57.7386 74.8139 62.1932C74.8139 66.6477 73.8026 70.6818 71.7798 74.2955C69.7798 77.9091 66.9616 80.7727 63.3253 82.8864C59.6889 84.9773 55.4389 86 50.5753 85.9545ZM50.5412 77.0909C53.223 77.0909 55.6207 76.4318 57.7344 75.1136C59.848 73.7955 61.5185 72.0227 62.7457 69.7955C63.973 67.5682 64.5866 65.0795 64.5866 62.3295C64.5866 59.6477 63.9844 57.2045 62.7798 55C61.598 52.7955 59.9616 51.0455 57.8707 49.75C55.8026 48.4545 53.4389 47.8068 50.7798 47.8068C48.7571 47.8068 46.8821 48.1932 45.1548 48.9659C43.4503 49.7386 41.9503 50.8068 40.6548 52.1705C39.3594 53.5341 38.3366 55.1023 37.5866 56.875C36.8594 58.625 36.4957 60.4773 36.4957 62.4318C36.4957 65.0455 37.098 67.4659 38.3026 69.6932C39.5298 71.9205 41.2003 73.7159 43.3139 75.0795C45.4503 76.4205 47.8594 77.0909 50.5412 77.0909Z" fill="white"/>
</svg>
