<svg width="512" height="512" viewBox="0 0 512 512" fill="none" xmlns="http://www.w3.org/2000/svg">
<g clip-path="url(#clip0_1650_2005)">
<path d="M460.8 294.63V25.6C460.8 18.8105 458.103 12.299 453.302 7.49807C448.501 2.69714 441.99 0 435.2 0L110.933 0C104.144 0 97.6323 2.69714 92.8314 7.49807C88.0305 12.299 85.3333 18.8105 85.3333 25.6V221.867H25.6C18.8105 221.867 12.299 224.564 7.49807 229.365C2.69714 234.166 0 240.677 0 247.467L0 460.8C0.0135546 474.375 5.41218 487.39 15.0111 496.989C24.61 506.588 37.6251 511.986 51.2 512H392.533C417.961 512.022 442.731 503.923 463.235 488.885C483.738 473.847 498.904 452.654 506.523 428.395C514.142 404.136 513.815 378.077 505.591 354.017C497.367 329.956 481.674 309.15 460.8 294.63ZM17.0667 460.8V247.467C17.0667 245.203 17.9657 243.033 19.566 241.433C21.1663 239.832 23.3368 238.933 25.6 238.933H85.3333V460.8C85.3333 469.853 81.7372 478.535 75.3359 484.936C68.9347 491.337 60.2527 494.933 51.2 494.933C42.1473 494.933 33.4653 491.337 27.0641 484.936C20.6628 478.535 17.0667 469.853 17.0667 460.8ZM89.2587 494.933C97.714 485.575 102.397 473.412 102.4 460.8V25.6C102.4 23.3368 103.299 21.1663 104.899 19.566C106.5 17.9657 108.67 17.0667 110.933 17.0667H435.2C437.463 17.0667 439.634 17.9657 441.234 19.566C442.834 21.1663 443.733 23.3368 443.733 25.6V284.757C386.193 257.331 317.269 279.979 287.206 336.188C257.143 392.388 276.565 462.293 331.315 494.933H89.2587ZM392.533 494.933C335.983 494.933 290.133 449.084 290.133 392.533C290.133 335.983 335.983 290.133 392.533 290.133C449.084 290.133 494.933 335.983 494.933 392.533C494.874 449.058 449.058 494.874 392.533 494.933Z" fill="#FF991E"/>
<path d="M435.2 383.999V380.031L457.003 365.525C458.175 364.743 459.135 363.683 459.798 362.44C460.46 361.196 460.805 359.808 460.8 358.399V341.333C460.8 339.07 459.901 336.899 458.301 335.299C456.701 333.699 454.53 332.799 452.267 332.799C450.004 332.799 447.833 333.699 446.233 335.299C444.633 336.899 443.734 339.07 443.734 341.333V353.834L429.833 363.101C426.675 360.089 422.494 358.408 418.134 358.399V349.866C418.134 343.077 415.436 336.565 410.635 331.764C405.835 326.963 399.323 324.266 392.534 324.266C385.744 324.266 379.233 326.963 374.432 331.764C369.631 336.565 366.933 343.077 366.933 349.866V358.399C362.575 358.409 358.387 360.092 355.234 363.101L341.333 353.834V341.333C341.333 339.07 340.434 336.899 338.834 335.299C337.234 333.699 335.063 332.799 332.8 332.799C330.537 332.799 328.366 333.699 326.766 335.299C325.166 336.899 324.267 339.07 324.267 341.333V358.399C324.267 359.804 324.613 361.187 325.276 362.425C325.938 363.664 326.896 364.72 328.064 365.499L349.867 380.031V383.999H324.267C322.004 383.999 319.833 384.899 318.233 386.499C316.633 388.099 315.733 390.27 315.733 392.533C315.733 394.796 316.633 396.967 318.233 398.567C319.833 400.167 322.004 401.066 324.267 401.066H349.867V405.034L328.064 419.541C326.892 420.323 325.932 421.383 325.269 422.626C324.607 423.869 324.262 425.257 324.267 426.666V443.733C324.267 445.996 325.166 448.167 326.766 449.767C328.366 451.367 330.537 452.266 332.8 452.266C335.063 452.266 337.234 451.367 338.834 449.767C340.434 448.167 341.333 445.996 341.333 443.733V431.231L350.567 425.079C352.18 435.047 357.289 444.115 364.978 450.66C372.668 457.205 382.436 460.8 392.534 460.8C402.631 460.8 412.399 457.205 420.089 450.66C427.778 444.115 432.887 435.047 434.5 425.079L443.734 431.231V443.733C443.734 445.996 444.633 448.167 446.233 449.767C447.833 451.367 450.004 452.266 452.267 452.266C454.53 452.266 456.701 451.367 458.301 449.767C459.901 448.167 460.8 445.996 460.8 443.733V426.666C460.8 425.262 460.454 423.879 459.791 422.64C459.129 421.402 458.171 420.346 457.003 419.566L435.2 405.034V401.066H460.8C463.063 401.066 465.234 400.167 466.834 398.567C468.434 396.967 469.334 394.796 469.334 392.533C469.334 390.27 468.434 388.099 466.834 386.499C465.234 384.899 463.063 383.999 460.8 383.999H435.2ZM384 349.866C384 347.603 384.899 345.432 386.5 343.832C388.1 342.232 390.27 341.333 392.534 341.333C394.797 341.333 396.967 342.232 398.567 343.832C400.168 345.432 401.067 347.603 401.067 349.866V358.399H384V349.866ZM418.134 418.133C418.134 424.922 415.436 431.434 410.635 436.235C405.835 441.036 399.323 443.733 392.534 443.733C385.744 443.733 379.233 441.036 374.432 436.235C369.631 431.434 366.933 424.922 366.933 418.133V375.466H418.134V418.133ZM179.2 34.1328C167.386 34.1328 155.837 37.6361 146.014 44.1997C136.191 50.7633 128.535 60.0923 124.014 71.0072C119.493 81.922 118.31 93.9324 120.615 105.52C122.919 117.107 128.608 127.75 136.962 136.104C145.316 144.458 155.96 150.147 167.547 152.452C179.134 154.757 191.144 153.574 202.059 149.053C212.974 144.531 222.303 136.875 228.867 127.052C235.43 117.229 238.933 105.68 238.933 93.8661C238.915 78.0294 232.616 62.8465 221.418 51.6483C210.22 40.45 195.037 34.1509 179.2 34.1328ZM179.2 136.533C167.884 136.533 157.032 132.038 149.03 124.036C141.029 116.034 136.533 105.182 136.533 93.8661C136.533 82.5502 141.029 71.6978 149.03 63.6963C157.032 55.6947 167.884 51.1995 179.2 51.1995C190.516 51.1995 201.368 55.6947 209.37 63.6963C217.372 71.6978 221.867 82.5502 221.867 93.8661C221.867 105.182 217.372 116.034 209.37 124.036C201.368 132.038 190.516 136.533 179.2 136.533Z" fill="#FF991E"/>
<path d="M202.3 70.766C200.7 69.1663 198.53 68.2676 196.267 68.2676C194.004 68.2676 191.834 69.1663 190.234 70.766L179.2 81.7996L168.167 70.766C166.557 69.2116 164.402 68.3515 162.164 68.3709C159.927 68.3904 157.787 69.2878 156.204 70.87C154.622 72.4521 153.725 74.5924 153.705 76.8298C153.686 79.0672 154.546 81.2227 156.1 82.8322L167.134 93.8658L156.1 104.899C155.285 105.687 154.635 106.628 154.188 107.669C153.741 108.71 153.505 109.83 153.496 110.963C153.486 112.096 153.702 113.22 154.131 114.269C154.56 115.317 155.193 116.27 155.995 117.071C156.796 117.872 157.749 118.506 158.797 118.935C159.846 119.364 160.97 119.58 162.103 119.57C163.236 119.56 164.356 119.325 165.397 118.878C166.438 118.431 167.379 117.781 168.167 116.965L179.2 105.932L190.234 116.965C191.843 118.52 193.999 119.38 196.236 119.361C198.474 119.341 200.614 118.444 202.196 116.862C203.778 115.279 204.676 113.139 204.695 110.902C204.714 108.664 203.854 106.509 202.3 104.899L191.266 93.8658L202.3 82.8322C203.9 81.2319 204.798 79.0618 204.798 76.7991C204.798 74.5364 203.9 72.3663 202.3 70.766ZM179.2 307.199C167.386 307.199 155.837 310.702 146.014 317.266C136.191 323.83 128.535 333.159 124.014 344.073C119.493 354.988 118.31 366.999 120.615 378.586C122.919 390.173 128.608 400.816 136.962 409.17C145.316 417.524 155.96 423.213 167.547 425.518C179.134 427.823 191.144 426.64 202.059 422.119C212.974 417.598 222.303 409.942 228.867 400.119C235.43 390.295 238.933 378.747 238.933 366.932C238.915 351.096 232.616 335.913 221.418 324.715C210.22 313.516 195.037 307.217 179.2 307.199ZM179.2 409.599C167.884 409.599 157.032 405.104 149.03 397.102C141.029 389.101 136.533 378.248 136.533 366.932C136.533 355.617 141.029 344.764 149.03 336.763C157.032 328.761 167.884 324.266 179.2 324.266C190.516 324.266 201.368 328.761 209.37 336.763C217.372 344.764 221.867 355.617 221.867 366.932C221.867 378.248 217.372 389.101 209.37 397.102C201.368 405.104 190.516 409.599 179.2 409.599Z" fill="#FF991E"/>
<path d="M202.3 343.833C200.7 342.233 198.53 341.335 196.267 341.335C194.004 341.335 191.834 342.233 190.234 343.833L179.2 354.867L168.167 343.833C166.557 342.279 164.402 341.418 162.164 341.438C159.927 341.457 157.787 342.355 156.204 343.937C154.622 345.519 153.725 347.659 153.705 349.897C153.686 352.134 154.546 354.29 156.1 355.899L167.134 366.933L156.1 377.966C155.285 378.753 154.635 379.695 154.188 380.736C153.741 381.777 153.505 382.897 153.496 384.03C153.486 385.163 153.702 386.287 154.131 387.335C154.56 388.384 155.193 389.337 155.995 390.138C156.796 390.939 157.749 391.573 158.797 392.002C159.846 392.431 160.97 392.647 162.103 392.637C163.236 392.627 164.356 392.392 165.397 391.945C166.438 391.498 167.379 390.847 168.167 390.032L179.2 378.999L190.234 390.032C191.843 391.587 193.999 392.447 196.236 392.428C198.474 392.408 200.614 391.511 202.196 389.928C203.778 388.346 204.676 386.206 204.695 383.969C204.714 381.731 203.854 379.576 202.3 377.966L191.266 366.933L202.3 355.899C203.9 354.299 204.798 352.129 204.798 349.866C204.798 347.603 203.9 345.433 202.3 343.833ZM179.2 170.666C167.386 170.666 155.837 174.169 146.014 180.733C136.191 187.296 128.535 196.626 124.014 207.54C119.493 218.455 118.31 230.466 120.615 242.053C122.919 253.64 128.608 264.283 136.962 272.637C145.316 280.991 155.96 286.68 167.547 288.985C179.134 291.29 191.144 290.107 202.059 285.586C212.974 281.065 222.303 273.409 228.867 263.585C235.43 253.762 238.933 242.213 238.933 230.399C238.915 214.563 232.616 199.38 221.418 188.181C210.22 176.983 195.037 170.684 179.2 170.666ZM179.2 273.066C167.884 273.066 157.032 268.571 149.03 260.569C141.029 252.568 136.533 241.715 136.533 230.399C136.533 219.083 141.029 208.231 149.03 200.229C157.032 192.228 167.884 187.733 179.2 187.733C190.516 187.733 201.368 192.228 209.37 200.229C217.372 208.231 221.867 219.083 221.867 230.399C221.867 241.715 217.372 252.568 209.37 260.569C201.368 268.571 190.516 273.066 179.2 273.066Z" fill="#FF991E"/>
<path d="M190.234 215.833L170.667 235.4L168.167 232.899C166.557 231.345 164.402 230.485 162.164 230.504C159.927 230.524 157.787 231.421 156.204 233.003C154.622 234.586 153.725 236.726 153.705 238.963C153.686 241.201 154.546 243.356 156.1 244.966L164.634 253.499C166.234 255.099 168.404 255.997 170.667 255.997C172.93 255.997 175.1 255.099 176.7 253.499L202.3 227.899C203.854 226.29 204.714 224.134 204.695 221.897C204.676 219.659 203.778 217.519 202.196 215.937C200.614 214.355 198.474 213.457 196.236 213.438C193.999 213.418 191.843 214.278 190.234 215.833ZM273.067 68.2659H332.8C335.063 68.2659 337.234 67.3668 338.834 65.7665C340.435 64.1662 341.334 61.9957 341.334 59.7326C341.334 57.4694 340.435 55.2989 338.834 53.6986C337.234 52.0983 335.063 51.1992 332.8 51.1992H273.067C270.804 51.1992 268.633 52.0983 267.033 53.6986C265.433 55.2989 264.534 57.4694 264.534 59.7326C264.534 61.9957 265.433 64.1662 267.033 65.7665C268.633 67.3668 270.804 68.2659 273.067 68.2659ZM366.934 68.2659H401.067C403.33 68.2659 405.501 67.3668 407.101 65.7665C408.701 64.1662 409.6 61.9957 409.6 59.7326C409.6 57.4694 408.701 55.2989 407.101 53.6986C405.501 52.0983 403.33 51.1992 401.067 51.1992H366.934C364.67 51.1992 362.5 52.0983 360.9 53.6986C359.299 55.2989 358.4 57.4694 358.4 59.7326C358.4 61.9957 359.299 64.1662 360.9 65.7665C362.5 67.3668 364.67 68.2659 366.934 68.2659ZM273.067 102.399H418.134C420.397 102.399 422.567 101.5 424.168 99.8999C425.768 98.2996 426.667 96.1291 426.667 93.8659C426.667 91.6027 425.768 89.4322 424.168 87.8319C422.567 86.2316 420.397 85.3326 418.134 85.3326H273.067C270.804 85.3326 268.633 86.2316 267.033 87.8319C265.433 89.4322 264.534 91.6027 264.534 93.8659C264.534 96.1291 265.433 98.2996 267.033 99.8999C268.633 101.5 270.804 102.399 273.067 102.399ZM273.067 136.533H324.267C326.53 136.533 328.701 135.634 330.301 134.033C331.901 132.433 332.8 130.262 332.8 127.999C332.8 125.736 331.901 123.566 330.301 121.965C328.701 120.365 326.53 119.466 324.267 119.466H273.067C270.804 119.466 268.633 120.365 267.033 121.965C265.433 123.566 264.534 125.736 264.534 127.999C264.534 130.262 265.433 132.433 267.033 134.033C268.633 135.634 270.804 136.533 273.067 136.533ZM273.067 204.799H332.8C335.063 204.799 337.234 203.9 338.834 202.3C340.435 200.7 341.334 198.529 341.334 196.266C341.334 194.003 340.435 191.832 338.834 190.232C337.234 188.632 335.063 187.733 332.8 187.733H273.067C270.804 187.733 268.633 188.632 267.033 190.232C265.433 191.832 264.534 194.003 264.534 196.266C264.534 198.529 265.433 200.7 267.033 202.3C268.633 203.9 270.804 204.799 273.067 204.799ZM366.934 187.733C364.67 187.733 362.5 188.632 360.9 190.232C359.299 191.832 358.4 194.003 358.4 196.266C358.4 198.529 359.299 200.7 360.9 202.3C362.5 203.9 364.67 204.799 366.934 204.799H401.067C403.33 204.799 405.501 203.9 407.101 202.3C408.701 200.7 409.6 198.529 409.6 196.266C409.6 194.003 408.701 191.832 407.101 190.232C405.501 188.632 403.33 187.733 401.067 187.733H366.934ZM273.067 238.933H418.134C420.397 238.933 422.567 238.034 424.168 236.433C425.768 234.833 426.667 232.662 426.667 230.399C426.667 228.136 425.768 225.966 424.168 224.365C422.567 222.765 420.397 221.866 418.134 221.866H273.067C270.804 221.866 268.633 222.765 267.033 224.365C265.433 225.966 264.534 228.136 264.534 230.399C264.534 232.662 265.433 234.833 267.033 236.433C268.633 238.034 270.804 238.933 273.067 238.933ZM324.267 273.066C326.53 273.066 328.701 272.167 330.301 270.567C331.901 268.966 332.8 266.796 332.8 264.533C332.8 262.269 331.901 260.099 330.301 258.499C328.701 256.898 326.53 255.999 324.267 255.999H273.067C270.804 255.999 268.633 256.898 267.033 258.499C265.433 260.099 264.534 262.269 264.534 264.533C264.534 266.796 265.433 268.966 267.033 270.567C268.633 272.167 270.804 273.066 273.067 273.066H324.267Z" fill="#FF991E"/>
</g>
<defs>
<clipPath id="clip0_1650_2005">
<rect width="512" height="512" fill="white"/>
</clipPath>
</defs>
</svg>
