<svg width="400" height="170" viewBox="0 0 400 170" fill="none" xmlns="http://www.w3.org/2000/svg">
<path d="M268.484 0.189857C253.19 2.12591 242.363 8.67871 237.215 18.9547C234.867 23.6459 234.792 24.1672 234.792 32.805C234.792 40.996 234.943 42.1129 236.836 46.0595C239.183 50.8997 245.846 58.1971 250.843 61.3246C254.402 63.5585 254.78 64.2287 252.812 64.9733C238.123 69.8879 132.805 112.407 88.2857 131.32C42.3275 150.904 -0.450696 169.595 0.00358599 169.967C0.155013 170.116 1.59357 169.744 3.18356 169.148C4.84926 168.552 16.2063 164.457 28.4719 160.138C53.306 151.277 87.3772 138.841 109.94 130.352C118.041 127.299 124.855 124.768 125.007 124.768C125.234 124.768 125.385 129.31 125.385 134.82C125.385 149.341 124.098 151.575 114.861 153.138L110.243 153.957V156.862V159.766H137.121H163.999V156.787C163.999 154.032 163.848 153.883 161.198 153.436C155.065 152.468 152.112 150.904 150.674 148C149.538 145.618 149.387 143.16 149.462 130.427C149.538 122.31 149.69 115.534 149.841 115.385C149.992 115.162 152.188 114.268 154.762 113.3L159.381 111.513L169.451 125.363C175.054 133.033 183.004 143.905 187.168 149.49L194.663 159.691L212.305 159.766H229.87V156.862C229.87 153.734 229.795 153.66 224.797 152.692C220.482 151.872 216.545 148.149 206.399 135.267C194.739 120.374 182.171 103.769 182.171 103.099C182.171 102.801 191.256 99.0032 202.462 94.6099C231.839 82.9191 269.241 67.5795 302.555 53.5059C335.869 39.5067 400.302 11.4339 399.999 11.136C399.847 10.9871 397.046 11.8807 393.79 13.0721C390.459 14.2635 378.193 18.5824 366.533 22.7524C354.874 26.9223 332.084 35.1878 315.881 41.1449L286.353 52.0166L278.024 47.6977C258.566 37.6451 252.887 30.6455 255.537 19.9227C256.976 14.4869 259.474 11.285 264.32 8.97658C268.03 7.18945 269.166 6.96606 274.011 7.26391C284.611 7.93409 291.653 14.1146 295.741 26.1777C297.331 30.72 297.483 30.9434 299.375 30.4966C303.691 29.5286 304.145 29.3052 303.767 28.1137C303.615 27.4436 302.783 21.7099 302.101 15.4549C301.344 9.27443 300.587 3.83858 300.36 3.46626C299.224 1.7536 275.223 -0.703707 268.484 0.189857Z" fill="#D40003"/>
<path d="M136.97 46.3579L110.243 46.5813V49.4854V52.315L114.407 52.7618C119.859 53.283 123.266 55.2936 124.402 58.4955C125.007 60.2826 125.31 68.697 125.31 85.8237C125.386 99.4506 125.613 110.62 125.916 110.62C126.219 110.62 136.743 106.45 149.311 101.312L172.177 92.0042L178.461 85.5258C181.944 81.8771 189.44 74.3563 195.042 68.7715C206.778 57.1552 210.791 54.6979 221.012 53.1341L226.842 52.2406V49.262V46.209H203.75H180.657V49.262V52.315L184.518 52.7618C188.758 53.283 191.257 54.9213 191.257 57.1552C191.257 59.0912 189.061 62.1442 180.127 72.4202C165.666 89.1001 150.447 101.833 149.16 98.3336C148.857 97.6634 148.857 89.0256 149.009 79.122C149.387 59.0168 149.917 56.5595 154.157 54.4C155.444 53.7298 158.17 52.9852 160.29 52.7618L164 52.315V49.1131C164 47.326 163.924 45.9111 163.848 45.9856C163.697 46.1345 151.583 46.2835 136.97 46.3579Z" fill="#59595B"/>
<path d="M284.157 65.8677C276.662 68.9952 270.756 71.8993 270.832 72.2716C270.983 72.7184 272.27 73.8353 273.785 74.7289C278.479 77.8564 283.552 83.2922 284.839 86.4942C285.672 88.7281 285.975 91.3343 285.823 95.2064C285.217 105.78 279.085 111.663 268.485 111.663C258.036 111.663 247.891 103.993 241.228 90.962L237.972 84.707L235.095 86.0474C233.429 86.7176 231.991 87.4622 231.764 87.6856C231.385 87.9834 235.549 112.705 236.079 113.227C236.761 113.897 252.131 117.397 257.809 118.141C283.552 121.492 304.373 109.131 308.007 88.4302C309.673 78.8989 306.569 68.5484 300.36 62.7402L297.634 60.2085L284.157 65.8677Z" fill="#59595B"/>
</svg>
