<svg width="1038" height="170" viewBox="0 0 1038 170" fill="none" xmlns="http://www.w3.org/2000/svg">
<path d="M268.484 0.189857C253.19 2.12591 242.363 8.67871 237.215 18.9547C234.867 23.6459 234.792 24.1672 234.792 32.805C234.792 40.996 234.943 42.1129 236.836 46.0595C239.183 50.8997 245.846 58.1971 250.843 61.3246C254.402 63.5585 254.78 64.2287 252.812 64.9733C238.123 69.8879 132.805 112.407 88.2857 131.32C42.3275 150.904 -0.450696 169.595 0.00358599 169.967C0.155013 170.116 1.59357 169.744 3.18356 169.148C4.84926 168.552 16.2063 164.457 28.4719 160.138C53.306 151.277 87.3772 138.841 109.94 130.352C118.041 127.299 124.855 124.768 125.007 124.768C125.234 124.768 125.385 129.31 125.385 134.82C125.385 149.341 124.098 151.575 114.861 153.138L110.243 153.957V156.862V159.766H137.121H163.999V156.787C163.999 154.032 163.848 153.883 161.198 153.436C155.065 152.468 152.112 150.904 150.674 148C149.538 145.618 149.387 143.16 149.462 130.427C149.538 122.31 149.69 115.534 149.841 115.385C149.992 115.162 152.188 114.268 154.762 113.3L159.381 111.513L169.451 125.363C175.054 133.033 183.004 143.905 187.168 149.49L194.663 159.691L212.305 159.766H229.87V156.862C229.87 153.734 229.795 153.66 224.797 152.692C220.482 151.872 216.545 148.149 206.399 135.267C194.739 120.374 182.171 103.769 182.171 103.099C182.171 102.801 191.256 99.0032 202.462 94.6099C231.839 82.9191 269.241 67.5795 302.555 53.5059C335.869 39.5067 400.302 11.4339 399.999 11.136C399.847 10.9871 397.046 11.8807 393.79 13.0721C390.459 14.2635 378.193 18.5824 366.533 22.7524C354.874 26.9223 332.084 35.1878 315.881 41.1449L286.353 52.0166L278.024 47.6977C258.566 37.6451 252.887 30.6455 255.537 19.9227C256.976 14.4869 259.474 11.285 264.32 8.97658C268.03 7.18945 269.166 6.96606 274.011 7.26391C284.611 7.93409 291.653 14.1146 295.741 26.1777C297.331 30.72 297.483 30.9434 299.375 30.4966C303.691 29.5286 304.145 29.3052 303.767 28.1137C303.615 27.4436 302.783 21.7099 302.101 15.4549C301.344 9.27443 300.587 3.83858 300.36 3.46626C299.224 1.7536 275.223 -0.703707 268.484 0.189857Z" fill="#D40003"/>
<path d="M136.97 46.3579L110.243 46.5813V49.4854V52.315L114.407 52.7618C119.859 53.283 123.266 55.2936 124.402 58.4955C125.007 60.2826 125.31 68.697 125.31 85.8237C125.386 99.4506 125.613 110.62 125.916 110.62C126.219 110.62 136.743 106.45 149.311 101.312L172.177 92.0042L178.461 85.5258C181.944 81.8771 189.44 74.3563 195.042 68.7715C206.778 57.1552 210.791 54.6979 221.012 53.1341L226.842 52.2406V49.262V46.209H203.75H180.657V49.262V52.315L184.518 52.7618C188.758 53.283 191.257 54.9213 191.257 57.1552C191.257 59.0912 189.061 62.1442 180.127 72.4202C165.666 89.1001 150.447 101.833 149.16 98.3336C148.857 97.6634 148.857 89.0256 149.009 79.122C149.387 59.0168 149.917 56.5595 154.157 54.4C155.444 53.7298 158.17 52.9852 160.29 52.7618L164 52.315V49.1131C164 47.326 163.924 45.9111 163.848 45.9856C163.697 46.1345 151.583 46.2835 136.97 46.3579Z" fill="#59595B"/>
<path d="M284.157 65.8677C276.662 68.9952 270.756 71.8993 270.832 72.2716C270.983 72.7184 272.27 73.8353 273.785 74.7289C278.479 77.8564 283.552 83.2922 284.839 86.4942C285.672 88.7281 285.975 91.3343 285.823 95.2064C285.217 105.78 279.085 111.663 268.485 111.663C258.036 111.663 247.891 103.993 241.228 90.962L237.972 84.707L235.095 86.0474C233.429 86.7176 231.991 87.4622 231.764 87.6856C231.385 87.9834 235.549 112.705 236.079 113.227C236.761 113.897 252.131 117.397 257.809 118.141C283.552 121.492 304.373 109.131 308.007 88.4302C309.673 78.8989 306.569 68.5484 300.36 62.7402L297.634 60.2085L284.157 65.8677Z" fill="#59595B"/>
<path d="M438.784 108.728L438.4 97.208L492.672 41.4H503.552L464 82.872L458.624 88.632L438.784 108.728ZM430.592 131V41.4H440.064V131H430.592ZM494.976 131L456.32 86.456L462.72 79.544L506.24 131H494.976ZM503.756 131L544.716 41.4H554.06L595.02 131H585.036L547.404 46.904H551.244L513.612 131H503.756ZM519.884 107.064L522.7 99.384H574.796L577.612 107.064H519.884ZM634.546 131.768C627.89 131.768 621.49 130.701 615.346 128.568C609.287 126.349 604.594 123.533 601.266 120.12L604.978 112.824C608.135 115.896 612.359 118.499 617.65 120.632C623.026 122.68 628.658 123.704 634.546 123.704C640.178 123.704 644.743 123.021 648.242 121.656C651.826 120.205 654.429 118.285 656.05 115.896C657.757 113.507 658.61 110.861 658.61 107.96C658.61 104.461 657.586 101.645 655.538 99.512C653.575 97.3787 650.973 95.7147 647.73 94.52C644.487 93.24 640.903 92.1307 636.978 91.192C633.053 90.2533 629.127 89.272 625.202 88.248C621.277 87.1387 617.65 85.688 614.322 83.896C611.079 82.104 608.434 79.7573 606.386 76.856C604.423 73.8693 603.442 69.9867 603.442 65.208C603.442 60.7707 604.594 56.7173 606.898 53.048C609.287 49.2933 612.914 46.3067 617.778 44.088C622.642 41.784 628.871 40.632 636.466 40.632C641.501 40.632 646.493 41.3573 651.442 42.808C656.391 44.1733 660.658 46.0933 664.242 48.568L661.042 56.12C657.202 53.56 653.106 51.6827 648.754 50.488C644.487 49.2933 640.349 48.696 636.338 48.696C630.962 48.696 626.525 49.4213 623.026 50.872C619.527 52.3227 616.925 54.2853 615.218 56.76C613.597 59.1493 612.786 61.88 612.786 64.952C612.786 68.4507 613.767 71.2667 615.73 73.4C617.778 75.5333 620.423 77.1973 623.666 78.392C626.994 79.5867 630.621 80.6533 634.546 81.592C638.471 82.5307 642.354 83.5547 646.194 84.664C650.119 85.7733 653.703 87.224 656.946 89.016C660.274 90.7227 662.919 93.0267 664.882 95.928C666.93 98.8293 667.954 102.627 667.954 107.32C667.954 111.672 666.759 115.725 664.37 119.48C661.981 123.149 658.311 126.136 653.362 128.44C648.498 130.659 642.226 131.768 634.546 131.768ZM754.128 41.4H763.472V131H754.128V41.4ZM698.064 131H688.592V41.4H698.064V131ZM755.024 89.656H697.04V81.336H755.024V89.656ZM814.093 131V97.72L816.269 103.608L778.253 41.4H788.365L821.773 96.056H816.397L849.805 41.4H859.277L821.261 103.608L823.437 97.72V131H814.093ZM854.381 131L895.341 41.4H904.685L945.645 131H935.661L898.029 46.904H901.869L864.237 131H854.381ZM870.509 107.064L873.325 99.384H925.421L928.237 107.064H870.509ZM960.467 131V41.4H994.003C1001.6 41.4 1008.13 42.6373 1013.59 45.112C1019.05 47.5013 1023.23 51 1026.13 55.608C1029.12 60.1307 1030.61 65.6347 1030.61 72.12C1030.61 78.4347 1029.12 83.896 1026.13 88.504C1023.23 93.0267 1019.05 96.5253 1013.59 99C1008.13 101.475 1001.6 102.712 994.003 102.712H965.715L969.939 98.232V131H960.467ZM969.939 99L965.715 94.392H993.747C1002.71 94.392 1009.49 92.472 1014.1 88.632C1018.79 84.7067 1021.14 79.2027 1021.14 72.12C1021.14 64.952 1018.79 59.4053 1014.1 55.48C1009.49 51.5547 1002.71 49.592 993.747 49.592H965.715L969.939 45.112V99Z" fill="white"/>
</svg>
