<svg width="512" height="512" viewBox="0 0 512 512" fill="none" xmlns="http://www.w3.org/2000/svg">
<path d="M208 480H32V240H208V400H224V24C224 21.8783 223.157 19.8434 221.657 18.3431C220.157 16.8429 218.122 16 216 16H24C21.8783 16 19.8434 16.8429 18.3431 18.3431C16.8429 19.8434 16 21.8783 16 24V488C16 490.122 16.8429 492.157 18.3431 493.657C19.8434 495.157 21.8783 496 24 496H216C218.122 496 220.157 495.157 221.657 493.657C223.157 492.157 224 490.122 224 488V448H208V480ZM208 180.686L157.657 130.343C156.156 128.843 154.122 128.001 152 128.001C149.878 128.001 147.844 128.843 146.343 130.343L124 152.686L101.657 130.343C100.156 128.843 98.1216 128.001 96 128.001C93.8784 128.001 91.8437 128.843 90.343 130.343L32 188.686V96H208V180.686ZM32 224V211.314L96 147.314L138.343 189.657L149.657 178.343L135.314 164L152 147.313L208 203.314V224H32ZM208 32V80H32V32H208Z" fill="#FF991E"/>
<path d="M48 48H80V64H48V48ZM176 48H192V64H176V48ZM48 304H192V320H48V304ZM48 344H192V360H48V344Z" fill="#FF991E"/>
<path d="M488 16H296C293.878 16 291.843 16.8429 290.343 18.3431C288.843 19.8434 288 21.8783 288 24V176H264C257.637 176.007 251.537 178.538 247.037 183.037C242.538 187.537 240.007 193.637 240 200V408C239.997 410.121 239.154 412.154 237.654 413.654C236.154 415.154 234.121 415.997 232 416H192V400C192 397.878 191.157 395.843 189.657 394.343C188.157 392.843 186.122 392 184 392H56C53.8783 392 51.8434 392.843 50.3431 394.343C48.8429 395.843 48 397.878 48 400V448C48 450.122 48.8429 452.157 50.3431 453.657C51.8434 455.157 53.8783 456 56 456H184C186.122 456 188.157 455.157 189.657 453.657C191.157 452.157 192 450.122 192 448V432H232C238.363 431.993 244.463 429.462 248.963 424.963C253.462 420.463 255.993 414.363 256 408V200C256.003 197.879 256.846 195.846 258.346 194.346C259.846 192.846 261.879 192.003 264 192H288V488C288 490.122 288.843 492.157 290.343 493.657C291.843 495.157 293.878 496 296 496H488C490.122 496 492.157 495.157 493.657 493.657C495.157 492.157 496 490.122 496 488V24C496 21.8783 495.157 19.8434 493.657 18.3431C492.157 16.8429 490.122 16 488 16ZM176 440H64V408H176V440ZM480 32V80H304V32H480ZM304 480V96H480V480H304Z" fill="#FF991E"/>
<path d="M352 176C358.329 176 364.516 174.123 369.778 170.607C375.041 167.091 379.142 162.093 381.564 156.246C383.986 150.399 384.62 143.965 383.385 137.757C382.15 131.55 379.103 125.848 374.627 121.373C370.152 116.897 364.45 113.85 358.243 112.615C352.035 111.38 345.601 112.014 339.754 114.436C333.907 116.858 328.909 120.959 325.393 126.222C321.877 131.484 320 137.671 320 144C320.01 152.484 323.384 160.618 329.383 166.617C335.382 172.616 343.516 175.99 352 176ZM352 128C355.165 128 358.258 128.938 360.889 130.696C363.52 132.455 365.571 134.953 366.782 137.877C367.993 140.801 368.31 144.018 367.693 147.121C367.075 150.225 365.551 153.076 363.314 155.314C361.076 157.551 358.225 159.075 355.121 159.693C352.018 160.31 348.801 159.993 345.877 158.782C342.953 157.571 340.455 155.52 338.696 152.889C336.938 150.258 336 147.165 336 144C336.005 139.758 337.692 135.691 340.692 132.692C343.691 129.692 347.758 128.005 352 128ZM320 48H352V64H320V48ZM448 48H464V64H448V48ZM400 120H464V136H400V120ZM400 152H464V168H400V152ZM456 400H328C325.878 400 323.843 400.843 322.343 402.343C320.843 403.843 320 405.878 320 408V456C320 458.122 320.843 460.157 322.343 461.657C323.843 463.157 325.878 464 328 464H456C458.122 464 460.157 463.157 461.657 461.657C463.157 460.157 464 458.122 464 456V408C464 405.878 463.157 403.843 461.657 402.343C460.157 400.843 458.122 400 456 400ZM448 448H336V416H448V448ZM48 264H192V280H48V264ZM392 200C377.76 200 363.839 204.223 351.999 212.134C340.159 220.046 330.93 231.291 325.481 244.447C320.031 257.603 318.605 272.08 321.383 286.047C324.162 300.013 331.019 312.842 341.088 322.912C351.158 332.981 363.987 339.838 377.953 342.617C391.92 345.395 406.397 343.969 419.553 338.519C432.709 333.07 443.954 323.841 451.866 312.001C459.777 300.161 464 286.24 464 272C463.979 252.911 456.386 234.61 442.888 221.112C429.39 207.614 411.089 200.021 392 200ZM392 216C404.089 215.987 415.854 219.906 425.519 227.167L388.687 264H336.58C338.519 250.68 345.185 238.502 355.36 229.689C365.534 220.877 378.539 216.018 392 216ZM336.58 280H380.457L365.054 321.073C357.458 316.892 350.934 311.007 345.993 303.881C341.053 296.754 337.832 288.58 336.581 280H336.58ZM380.031 326.699L393.507 290.763L412.545 324.079C402.211 328.174 390.888 329.086 380.031 326.699ZM426.426 316.12L401.978 273.336L436.833 238.481C445.619 250.204 449.451 264.909 447.505 279.429C445.558 293.949 437.989 307.125 426.426 316.121V316.12ZM328 360H360V376H328V360ZM376 360H408V376H376V360ZM424 360H456V376H424V360Z" fill="#FF991E"/>
</svg>
