<svg width="512" height="512" viewBox="0 0 512 512" fill="none" xmlns="http://www.w3.org/2000/svg">
<path d="M248 247.999C249.874 248 251.689 247.343 253.128 246.143L287.672 217.343C307.831 200.586 324.048 179.591 335.167 155.852C346.286 132.112 352.033 106.213 352 79.9991C352 77.8774 351.157 75.8425 349.657 74.3422C348.157 72.842 346.122 71.9991 344 71.9991H339.2C307.873 71.9544 277.486 61.2916 253 41.7511C251.581 40.6151 249.818 39.9961 248 39.9961C246.183 39.9961 244.419 40.6151 243 41.7511C218.514 61.2916 188.127 71.9544 156.8 71.9991H152C149.878 71.9991 147.844 72.842 146.343 74.3422C144.843 75.8425 144 77.8774 144 79.9991C143.966 106.214 149.712 132.113 160.831 155.853C171.95 179.592 188.168 200.588 208.328 217.343L242.872 246.143C244.311 247.343 246.126 248 248 247.999ZM160.192 87.9991C191.834 87.2472 222.483 76.8038 248 58.0791C273.519 76.8015 304.167 87.2446 335.808 87.9991C334.735 110.502 328.989 132.534 318.934 152.695C308.88 172.855 294.737 190.7 277.408 205.095L248 229.599L218.568 205.079C201.245 190.684 187.108 172.84 177.058 152.683C167.008 132.526 161.264 110.497 160.192 87.9991Z" fill="#FF991E"/>
<path d="M253.2 206.072L278.232 184.624C299.622 166.23 314.262 141.224 319.832 113.568C320.063 112.408 320.035 111.212 319.749 110.065C319.463 108.917 318.926 107.848 318.177 106.933C317.428 106.018 316.486 105.28 315.418 104.773C314.349 104.266 313.182 104.002 312 104C292.966 103.96 274.451 97.7889 259.2 86.4L252.8 81.6C251.415 80.5614 249.731 80 248 80C246.269 80 244.584 80.5614 243.2 81.6L236.8 86.4C221.547 97.7863 203.033 103.958 184 104C182.813 104 181.642 104.263 180.57 104.772C179.498 105.28 178.552 106.021 177.802 106.94C177.051 107.859 176.515 108.933 176.231 110.085C175.947 111.237 175.922 112.438 176.16 113.6C181.729 141.256 196.369 166.262 217.76 184.656L242.792 206.104C244.241 207.343 246.085 208.025 247.992 208.025C249.899 208.025 251.743 207.343 253.192 206.104L253.2 206.072ZM228.168 172.472C211.913 158.49 200.068 140.089 194.072 119.504C213.035 117.617 231.126 110.598 246.4 99.2L248 98L249.6 99.2C264.872 110.6 282.963 117.62 301.928 119.504C295.931 140.089 284.086 158.49 267.832 172.472L248 189.464L228.168 172.472Z" fill="#FF991E"/>
<path d="M496 280H424V16C424 13.8783 423.157 11.8434 421.657 10.3431C420.157 8.84285 418.122 8 416 8H80C77.8783 8 75.8434 8.84285 74.3431 10.3431C72.8429 11.8434 72 13.8783 72 16V216H16C13.8783 216 11.8434 216.843 10.3431 218.343C8.84285 219.843 8 221.878 8 224V464C8.0127 474.605 12.2311 484.772 19.7298 492.27C27.2285 499.769 37.3952 503.987 48 504H384C394.605 503.987 404.772 499.769 412.27 492.27C419.769 484.772 423.987 474.605 424 464V440H496C498.122 440 500.157 439.157 501.657 437.657C503.157 436.157 504 434.122 504 432V288C504 285.878 503.157 283.843 501.657 282.343C500.157 280.843 498.122 280 496 280ZM24 464V232H72V464C72 470.365 69.4714 476.47 64.9706 480.971C60.4697 485.471 54.3652 488 48 488C41.6348 488 35.5303 485.471 31.0294 480.971C26.5286 476.47 24 470.365 24 464ZM408 464C408 470.365 405.471 476.47 400.971 480.971C396.47 485.471 390.365 488 384 488H79.792C85.0865 481.117 87.9706 472.684 88 464V24H408V280H400C397.878 280 395.843 280.843 394.343 282.343C392.843 283.843 392 285.878 392 288V296H371.312L344 268.688V224C344 221.878 343.157 219.843 341.657 218.343C340.157 216.843 338.122 216 336 216H328C319.513 216 311.374 219.371 305.373 225.373C299.371 231.374 296 239.513 296 248V296H240C233.635 296 227.53 298.529 223.029 303.029C218.529 307.53 216 313.635 216 320V416C216 422.365 218.529 428.47 223.029 432.971C227.53 437.471 233.635 440 240 440H336C337.238 440.014 338.462 439.74 339.576 439.2L369.888 424H392V432C392 434.122 392.843 436.157 394.343 437.657C395.843 439.157 397.878 440 400 440H408V464ZM392 408H368C366.762 407.986 365.538 408.26 364.424 408.8L334.112 424H240C237.878 424 235.843 423.157 234.343 421.657C232.843 420.157 232 418.122 232 416V408H296V392H232V376H296V360H232V344H296V328H232V320C232 317.878 232.843 315.843 234.343 314.343C235.843 312.843 237.878 312 240 312H304C306.122 312 308.157 311.157 309.657 309.657C311.157 308.157 312 306.122 312 304V248C312 243.757 313.686 239.687 316.686 236.686C319.687 233.686 323.757 232 328 232V272C328 274.122 328.844 276.156 330.344 277.656L362.344 309.656C363.844 311.156 365.878 312 368 312H392V408ZM488 424H408V296H488V424Z" fill="#FF991E"/>
<path d="M179.68 249.008C178.556 248.372 177.291 248.026 176 248H112C109.878 248 107.843 248.843 106.343 250.343C104.843 251.843 104 253.878 104 256V320C104 322.121 104.843 324.156 106.343 325.657C107.843 327.157 109.878 328 112 328H176C178.122 328 180.157 327.157 181.657 325.657C183.157 324.156 184 322.121 184 320V267.312L205.656 245.656L194.344 234.344L179.68 249.008ZM168 312H120V264H164.688L144 284.688L133.656 274.344L122.344 285.656L138.344 301.656C139.844 303.156 141.879 303.998 144 303.998C146.121 303.998 148.156 303.156 149.656 301.656L168 283.312V312ZM194.344 330.344L179.68 345.008C178.556 344.371 177.291 344.025 176 344H112C109.878 344 107.843 344.843 106.343 346.343C104.843 347.843 104 349.878 104 352V416C104 418.121 104.843 420.156 106.343 421.657C107.843 423.157 109.878 424 112 424H176C178.122 424 180.157 423.157 181.657 421.657C183.157 420.156 184 418.121 184 416V363.312L205.656 341.656L194.344 330.344ZM168 408H120V360H164.688L144 380.688L133.656 370.344L122.344 381.656L138.344 397.656C139.844 399.156 141.879 399.998 144 399.998C146.121 399.998 148.156 399.156 149.656 397.656L168 379.312V408Z" fill="#FF991E"/>
</svg>
