<svg width="512" height="512" viewBox="0 0 512 512" fill="none" xmlns="http://www.w3.org/2000/svg">
<path d="M461.279 47.8626H397.573V41.4866C397.573 39.3649 396.73 37.3301 395.23 35.8298C393.73 34.3295 391.695 33.4866 389.573 33.4866H351.997C345.668 18.2186 330.683 8.01562 313.613 8.01562C296.543 8.01562 281.56 18.2186 275.23 33.4866H237.654C235.532 33.4866 233.497 34.3295 231.997 35.8298C230.497 37.3301 229.654 39.3649 229.654 41.4866V47.8626H152.391C136.92 47.8626 124.334 60.0076 124.334 74.9346V275.408C112.642 291.659 105.788 311.319 105.788 332.48C105.788 351.542 111.348 369.386 120.996 384.618L100.085 403.912C94.039 401.36 86.704 402.367 81.676 407.006L27.927 456.6C24.6 459.67 22.732 463.829 22.664 468.311C22.597 472.788 24.337 476.994 27.563 480.156L46.968 499.172C50.239 502.377 54.597 503.987 58.958 503.987C63.146 503.987 67.339 502.502 70.574 499.517L124.322 449.925C126.905 447.541 128.596 444.498 129.26 441.161C134.322 448.262 142.799 452.93 152.388 452.93H461.276C476.747 452.93 489.333 440.785 489.333 425.859V74.9336C489.336 60.0066 476.75 47.8626 461.279 47.8626ZM245.654 49.4866H281.009C282.802 49.4866 284.544 48.8841 285.953 47.7757C287.363 46.6673 288.36 45.1173 288.783 43.3746C291.551 31.9766 301.761 24.0156 313.612 24.0156C325.463 24.0156 335.674 31.9766 338.442 43.3746C338.865 45.1173 339.862 46.6673 341.271 47.7757C342.681 48.8841 344.423 49.4866 346.216 49.4866H381.571V84.4296H245.654V49.4866ZM389.573 100.429C393.554 100.429 396.847 97.5166 397.461 93.7086H439.626V359.061L398.71 358.94H398.687C396.565 358.94 394.531 359.783 393.031 361.283C391.531 362.784 390.688 364.818 390.687 366.94V407.085H283.008C304.214 388.591 317.537 361.994 317.537 332.481C317.537 297.633 298.965 266.849 270.772 248.672H305.784C314.252 248.672 321.141 242.105 321.141 234.031V141.062C321.141 138.94 320.298 136.905 318.798 135.405C317.298 133.904 315.263 133.062 313.141 133.062H202.771C200.649 133.062 198.614 133.904 197.114 135.405C195.614 136.905 194.771 138.94 194.771 141.062V232.707C187.705 233.791 180.762 235.568 174.044 238.013V93.7086H229.765C230.379 97.5166 233.672 100.429 237.653 100.429H389.573ZM434.428 375.045L406.687 400.082V374.963L434.428 375.045ZM247.479 149.062H268.434V173.702H247.479V149.062ZM239.479 189.702H276.434C278.556 189.702 280.591 188.859 282.091 187.358C283.591 185.858 284.434 183.823 284.434 181.702V149.062H305.141V232.671H228.327C222.811 231.834 217.241 231.415 211.662 231.415C211.364 231.415 211.068 231.423 210.771 231.426V149.062H231.479V181.702C231.479 186.12 235.062 189.702 239.479 189.702ZM152.392 63.8626H229.655V77.7096H166.046C163.924 77.7096 161.889 78.5525 160.389 80.0528C158.889 81.5531 158.046 83.5879 158.046 85.7096V245.367C151.733 248.917 145.799 253.103 140.336 257.859V74.9336C140.335 68.8286 145.743 63.8626 152.392 63.8626ZM211.662 247.415C261.22 247.415 301.537 285.575 301.537 332.479C301.537 379.383 261.22 417.542 211.662 417.542C162.105 417.542 121.789 379.383 121.789 332.479C121.789 285.575 162.105 247.415 211.662 247.415ZM136.208 403.298L118.15 419.96L112.398 414.323L130.657 397.475C132.432 399.486 134.283 401.429 136.208 403.298ZM113.476 438.165L59.729 487.757C59.349 488.108 58.533 488.1 58.17 487.743L38.765 468.727C38.663 468.627 38.664 468.575 38.664 468.549C38.664 468.526 38.665 468.462 38.779 468.358L92.527 418.765C92.714 418.592 93.006 418.507 93.298 418.507C93.599 418.507 93.9 418.598 94.084 418.778L113.489 437.794C113.591 437.894 113.59 437.946 113.59 437.973C113.591 437.999 113.59 438.061 113.476 438.165ZM473.336 425.859C473.336 431.963 467.928 436.93 461.279 436.93H152.392C145.744 436.93 140.335 431.963 140.335 425.859V421.261L148.616 413.62C166.24 426.131 188.06 433.543 211.662 433.543C228.48 433.543 244.392 429.774 258.528 423.084H402.005C403.985 423.084 405.895 422.35 407.365 421.022L452.986 379.848C453.817 379.098 454.481 378.182 454.936 377.159C455.391 376.136 455.626 375.029 455.626 373.91V85.7086C455.626 83.5869 454.783 81.5521 453.283 80.0518C451.783 78.5515 449.748 77.7086 447.626 77.7086H397.573V63.8626H461.279C467.927 63.8626 473.336 68.8296 473.336 74.9346V425.859ZM337.547 139.51C337.547 137.388 338.39 135.353 339.89 133.853C341.39 132.352 343.425 131.51 345.547 131.51H412.108C414.23 131.51 416.265 132.352 417.765 133.853C419.265 135.353 420.108 137.388 420.108 139.51C420.108 141.631 419.265 143.666 417.765 145.166C416.265 146.667 414.23 147.51 412.108 147.51H345.547C343.425 147.51 341.39 146.667 339.89 145.166C338.39 143.666 337.547 141.631 337.547 139.51ZM337.547 172.713C337.547 170.591 338.39 168.556 339.89 167.056C341.39 165.555 343.425 164.713 345.547 164.713H412.108C414.23 164.713 416.265 165.555 417.765 167.056C419.265 168.556 420.108 170.591 420.108 172.713C420.108 174.834 419.265 176.869 417.765 178.369C416.265 179.87 414.23 180.713 412.108 180.713H345.547C343.425 180.713 341.39 179.87 339.89 178.369C338.39 176.869 337.547 174.834 337.547 172.713ZM337.547 205.916C337.547 203.794 338.39 201.759 339.89 200.259C341.39 198.758 343.425 197.916 345.547 197.916H412.108C414.23 197.916 416.265 198.758 417.765 200.259C419.265 201.759 420.108 203.794 420.108 205.916C420.108 208.037 419.265 210.072 417.765 211.572C416.265 213.073 414.23 213.916 412.108 213.916H345.547C343.425 213.916 341.39 213.073 339.89 211.572C338.39 210.072 337.547 208.037 337.547 205.916ZM420.81 305.526C420.81 307.647 419.967 309.682 418.467 311.182C416.967 312.683 414.932 313.526 412.81 313.526H346.25C344.128 313.526 342.093 312.683 340.593 311.182C339.093 309.682 338.25 307.647 338.25 305.526C338.25 303.404 339.093 301.369 340.593 299.869C342.093 298.368 344.128 297.526 346.25 297.526H412.81C414.932 297.526 416.967 298.368 418.467 299.869C419.967 301.369 420.81 303.404 420.81 305.526ZM420.81 272.323C420.81 274.444 419.967 276.479 418.467 277.979C416.967 279.48 414.932 280.323 412.81 280.323H346.25C344.128 280.323 342.093 279.48 340.593 277.979C339.093 276.479 338.25 274.444 338.25 272.323C338.25 270.201 339.093 268.166 340.593 266.666C342.093 265.165 344.128 264.323 346.25 264.323H412.81C414.932 264.323 416.967 265.165 418.467 266.666C419.967 268.166 420.81 270.201 420.81 272.323ZM420.81 239.119C420.81 241.24 419.967 243.275 418.467 244.775C416.967 246.276 414.932 247.119 412.81 247.119H346.25C344.128 247.119 342.093 246.276 340.593 244.775C339.093 243.275 338.25 241.24 338.25 239.119C338.25 236.997 339.093 234.962 340.593 233.462C342.093 231.961 344.128 231.119 346.25 231.119H412.81C414.932 231.119 416.967 231.961 418.467 233.462C419.967 234.962 420.81 236.997 420.81 239.119ZM323.614 41.8776C323.614 46.7306 319.63 50.6886 314.742 50.6886C309.854 50.6886 305.871 46.7306 305.871 41.8776C305.871 37.0246 309.855 33.0666 314.742 33.0666C319.629 33.0666 323.614 37.0246 323.614 41.8776ZM211.663 407.305C254.826 407.305 289.942 373.739 289.942 332.48C289.942 291.22 254.826 257.654 211.663 257.654C168.5 257.654 133.384 291.22 133.384 332.48C133.384 373.739 168.5 407.305 211.663 407.305ZM211.663 273.654C246.004 273.654 273.942 300.044 273.942 332.48C273.942 364.916 246.004 391.305 211.663 391.305C177.322 391.305 149.384 364.916 149.384 332.48C149.384 300.044 177.322 273.654 211.663 273.654Z" fill="#FF991E"/>
</svg>
