<svg width="512" height="512" viewBox="0 0 512 512" fill="none" xmlns="http://www.w3.org/2000/svg">
<g clip-path="url(#clip0_1648_1917)">
<path d="M365.275 136.11C380.513 154.362 403.42 166 429 166C474.767 166 512 128.767 512 83C512 37.233 474.767 0 429 0C383.233 0 346 37.233 346 83C345.99 95.887 349.001 108.597 354.791 120.11H284.747C282.625 120.11 280.59 120.953 279.09 122.453L242.657 158.886C209.129 164.593 180.496 184.848 163.513 212.912H127.579L99.536 164.341C137.407 156.654 166 123.105 166 83C166 37.233 128.767 0 83 0C37.233 0 0 37.233 0 83C0 128.433 36.697 165.437 82.004 165.975L116.032 224.913C116.734 226.129 117.744 227.139 118.96 227.842C120.176 228.544 121.556 228.913 122.96 228.913H155.468C149.991 242.311 146.964 256.961 146.964 272.307C146.964 316.531 172.048 355.001 208.733 374.254V407.816L165.911 432.54C165.961 431.365 166.001 430.188 166.001 429.002C166.001 383.235 128.768 346.002 83.001 346.002C37.234 346.002 0 383.233 0 429C0 474.767 37.233 512 83 512C120.418 512 152.12 487.106 162.445 453.014L220.733 419.362C221.949 418.66 222.959 417.65 223.662 416.434C224.364 415.218 224.733 413.838 224.733 412.434V381.157C236.733 385.276 249.334 387.373 262.022 387.363C288.291 387.363 312.527 378.508 331.916 363.634L354.501 385.55C351.027 392.309 352.187 400.828 357.917 406.388L416.708 463.437C420.015 466.649 424.445 468.442 429.055 468.434C433.685 468.434 438.312 466.636 441.783 463.059L463.01 441.184C469.818 434.168 469.649 422.921 462.633 416.111L403.842 359.061C402.174 357.436 400.2 356.157 398.034 355.3C395.869 354.444 393.555 354.025 391.226 354.069C389.116 354.103 387.03 354.513 385.064 355.28L360.616 331.557C371.062 314.24 377.08 293.964 377.08 272.308C377.08 210.471 328.045 159.881 266.818 157.358L288.063 136.113H365.275V136.11ZM385.485 133.884C389.556 113.303 407.607 98.234 429 98.234C450.393 98.234 468.444 113.303 472.515 133.884C460.798 143.918 445.6 150 429 150C412.4 150 397.202 143.918 385.485 133.884ZM429.001 82.233C418.811 82.233 410.521 73.942 410.521 63.752C410.521 53.562 418.811 45.272 429.001 45.272C439.191 45.272 447.481 53.562 447.481 63.752C447.481 73.942 439.191 82.233 429.001 82.233ZM429 16C465.944 16 496 46.056 496 83C496 96.588 491.923 109.237 484.943 119.809C479.1 105.392 467.9 93.889 453.896 87.572C459.826 81.376 463.481 72.986 463.481 63.753C463.481 44.74 448.013 29.273 429.001 29.273C409.989 29.273 394.521 44.741 394.521 63.753C394.521 72.986 398.176 81.376 404.105 87.572C390.1 93.888 378.9 105.392 373.057 119.81C366.077 109.237 362 96.588 362 83C362 46.056 392.056 16 429 16ZM83.001 82.233C72.811 82.233 64.521 73.942 64.521 63.752C64.521 53.562 72.811 45.272 83.001 45.272C93.191 45.272 101.481 53.562 101.481 63.752C101.481 73.942 93.191 82.233 83.001 82.233ZM83 98.233C104.393 98.233 122.444 113.302 126.515 133.883C114.798 143.918 99.6 150 83 150C66.4 150 51.202 143.918 39.485 133.884C43.557 113.302 61.607 98.233 83 98.233ZM83 16C119.944 16 150 46.056 150 83C150 96.588 145.923 109.237 138.943 119.809C133.1 105.392 121.9 93.889 107.896 87.572C113.826 81.376 117.481 72.986 117.481 63.753C117.481 44.74 102.013 29.273 83.001 29.273C63.989 29.273 48.521 44.741 48.521 63.753C48.521 72.986 52.176 81.376 58.105 87.572C44.1 93.887 32.9 105.391 27.057 119.809C20.077 109.237 16 96.588 16 83C16 46.056 46.056 16 83 16ZM39.485 479.884C43.556 459.302 61.607 444.233 83 444.233C104.393 444.233 122.443 459.302 126.515 479.884C114.798 489.918 99.6 496 83 496C66.4 496 51.202 489.918 39.485 479.884ZM83.001 428.232C72.811 428.232 64.521 419.942 64.521 409.752C64.521 399.562 72.811 391.272 83.001 391.272C93.191 391.272 101.481 399.562 101.481 409.752C101.481 419.942 93.191 428.232 83.001 428.232ZM138.944 465.809C133.1 451.391 121.901 439.888 107.897 433.571C113.827 427.375 117.481 418.985 117.481 409.752C117.481 390.739 102.013 375.272 83.001 375.272C63.989 375.272 48.521 390.74 48.521 409.752C48.521 418.985 52.175 427.375 58.105 433.57C44.1 439.887 32.9 451.39 27.056 465.809C20.077 455.237 16 442.588 16 429C16 392.056 46.056 362 83 362C119.944 362 150 392.056 150 429C150 442.588 145.923 455.237 138.944 465.809ZM391.465 370.065H391.494C391.826 370.065 392.294 370.15 392.697 370.542L451.487 427.591C452.161 428.245 452.178 429.367 451.525 430.041L430.298 451.915C429.974 452.238 429.538 452.424 429.08 452.431C428.623 452.437 428.181 452.266 427.848 451.952L369.057 394.904C368.733 394.581 368.548 394.144 368.541 393.687C368.534 393.229 368.706 392.787 369.02 392.454L390.247 370.578C390.406 370.416 390.595 370.286 390.804 370.198C391.013 370.11 391.238 370.065 391.465 370.065ZM372.755 365.63L365.09 373.529L343.943 353.008C346.521 350.391 348.974 347.653 351.293 344.803L372.755 365.63ZM361.078 272.306C361.078 326.926 316.641 371.363 262.021 371.363C207.401 371.363 162.963 326.926 162.963 272.306C162.963 217.686 207.401 173.248 262.021 173.248C316.641 173.248 361.078 217.686 361.078 272.306ZM178.011 272.305C178.011 318.628 215.699 356.316 262.022 356.316C308.345 356.316 346.033 318.628 346.033 272.305C346.033 225.982 308.345 188.295 262.022 188.295C215.699 188.295 178.011 225.981 178.011 272.305ZM330.032 272.305C330.032 309.806 299.522 340.316 262.021 340.316C224.52 340.316 194.01 309.806 194.01 272.305C194.01 234.804 224.52 204.295 262.021 204.295C299.522 204.295 330.032 234.804 330.032 272.305ZM281.706 304.456V236.198C281.706 234.076 282.549 232.041 284.049 230.541C285.549 229.041 287.584 228.198 289.706 228.198C291.828 228.198 293.863 229.041 295.363 230.541C296.863 232.041 297.706 234.076 297.706 236.198V304.456C297.706 306.578 296.863 308.613 295.363 310.113C293.863 311.613 291.828 312.456 289.706 312.456C287.584 312.456 285.549 311.613 284.049 310.113C282.549 308.613 281.706 306.578 281.706 304.456ZM232.789 275.816V304.456C232.789 306.578 231.946 308.613 230.446 310.113C228.946 311.613 226.911 312.456 224.789 312.456C222.667 312.456 220.632 311.613 219.132 310.113C217.632 308.613 216.789 306.578 216.789 304.456V275.816C216.789 273.694 217.632 271.659 219.132 270.159C220.632 268.659 222.667 267.816 224.789 267.816C226.911 267.816 228.946 268.659 230.446 270.159C231.946 271.659 232.789 273.694 232.789 275.816ZM257.247 246.813C259.369 246.813 261.404 247.656 262.904 249.156C264.404 250.656 265.247 252.691 265.247 254.813V304.456C265.247 306.578 264.404 308.613 262.904 310.113C261.404 311.613 259.369 312.456 257.247 312.456C255.125 312.456 253.09 311.613 251.59 310.113C250.09 308.613 249.247 306.578 249.247 304.456V254.813C249.247 250.396 252.829 246.813 257.247 246.813Z" fill="#FF991E"/>
</g>
<defs>
<clipPath id="clip0_1648_1917">
<rect width="512" height="512" fill="white"/>
</clipPath>
</defs>
</svg>
